<svg width="190" height="30" viewBox="0 0 190 30" fill="none" xmlns="http://www.w3.org/2000/svg">
<path d="M4.66658 1.54653C4.5423 2.20932 3.50669 8.29873 2.3468 15.1338C1.22834 21.9688 0.192727 27.9754 0.0684534 28.4725C-0.138669 29.4253 -0.0972449 29.4253 3.50669 29.4253H7.15205L8.35336 21.5546C8.97473 17.205 9.63752 13.6839 9.80322 13.6839C9.96892 13.6839 11.4602 17.2464 13.1172 21.5546L16.1826 29.4667L17.7982 29.3424C19.3309 29.2181 19.4966 29.0939 20.1594 27.354C23.7633 17.9092 25.6688 13.2283 25.7931 13.3525C25.8759 13.4354 26.4145 16.6665 26.9944 20.519C27.5744 24.4129 28.1543 27.9754 28.2371 28.4725C28.4443 29.3838 28.6514 29.4253 31.9654 29.4253C34.5337 29.4253 35.4864 29.301 35.4864 28.8867C35.445 28.6382 34.368 22.1345 33.0838 14.5124L30.6812 0.635188H27.0358H23.3905L20.7807 7.88448C19.3723 11.8612 18.0053 15.1752 17.7982 15.2166C17.5496 15.2995 16.1826 12.0269 14.7327 7.88448L12.0816 0.428065H8.47764C4.91513 0.428065 4.91513 0.428065 4.66658 1.54653Z" fill="black"/>
<path d="M40.4574 14.9266V29.4252H48.5352H56.613V26.3184V23.2115H52.2634H47.9138V14.9266V6.64173H52.2634H56.613V3.53489V0.428049H48.5352H40.4574V14.9266Z" fill="black"/>
<path d="M62.8266 14.9266V29.4252H70.9044H78.9822V26.3184V23.2115H74.6326H70.2831V14.9266V6.64173H74.6326H78.9822V3.53489V0.428049H70.9044H62.8266V14.9266Z" fill="black"/>
<path d="M83.1247 3.53489V6.64173H86.2315H89.3383V18.0335V29.4252H92.8594H96.3805L96.4634 18.1163L96.5876 6.84885L99.6116 6.72458L102.594 6.60031V3.53489V0.428049H92.8594H83.1247V3.53489Z" fill="black"/>
<path d="M105.08 3.53489V6.64173H108.187H111.293V18.0335V29.4252H114.814H118.336V18.0335V6.64173H121.442H124.549V3.53489V0.428049H114.814H105.08V3.53489Z" fill="black"/>
<path d="M129.106 14.9266V29.4252H132.627H136.148V14.9266V0.428049H132.627H129.106V14.9266Z" fill="black"/>
<path d="M142.776 14.9266V29.4252H146.297H149.818L149.901 18.1163L150.025 6.84885L154.499 6.72458L158.932 6.60031V3.53489V0.428049H150.854H142.776V14.9266Z" fill="black"/>
<path d="M162.494 0.925144C162.66 1.21512 165.021 4.65335 167.714 8.54726L172.602 15.6723V22.5488V29.4252H176.123H179.644V22.673V15.8794L184.822 8.38156C187.68 4.28053 190 0.80087 190 0.676597C190 0.552323 188.094 0.428049 185.733 0.428049H181.467L178.898 4.15626C177.448 6.18606 176.247 7.88447 176.164 7.88447C176.081 7.88447 174.839 6.18606 173.472 4.15626L170.903 0.428049H166.554C163.198 0.428049 162.246 0.552323 162.494 0.925144Z" fill="black"/>
<path d="M50.6478 12.4826C49.4465 13.9325 49.2808 15.2581 50.1922 16.9565C50.855 18.2821 51.5592 18.6549 53.299 18.6549C55.0388 18.6549 55.7431 18.2821 56.4059 16.9565C57.3172 15.2581 57.1515 13.9325 55.9502 12.4826C55.1217 11.447 54.5417 11.1985 53.299 11.1985C52.0563 11.1985 51.4763 11.447 50.6478 12.4826Z" fill="black"/>
<path d="M73.2656 12.0269C70.7387 14.3881 72.1886 18.6549 75.5026 18.6549C77.4495 18.6549 78.3609 18.1164 78.9822 16.6251C80.4735 12.9383 76.0825 9.4172 73.2656 12.0269Z" fill="black"/>
<path d="M153.132 12.0269C150.647 14.5124 152.179 18.6549 155.535 18.6549C157.689 18.6549 159.139 17.1636 159.139 14.9267C159.139 12.6897 157.689 11.1985 155.535 11.1985C154.499 11.1985 153.671 11.4884 153.132 12.0269Z" fill="black"/>
</svg>
